<svg width="94" height="52" viewBox="0 0 94 52" fill="none" xmlns="http://www.w3.org/2000/svg">
<path d="M8.00994 32.1634C7.85545 29.9394 9.52112 28.0104 11.7303 27.8548L23.7306 27.0101C25.9398 26.8545 27.8559 28.5314 28.0104 30.7554L28.8495 42.8363C29.004 45.0604 27.3384 46.9894 25.1292 47.1449L13.1289 47.9897C10.9197 48.1452 9.00356 46.4683 8.84908 44.2443L8.00994 32.1634Z" fill="#98DFEA"/>
<path d="M25.0942 46.6415L25.1292 47.1448L13.1289 47.9896L13.0939 47.4862L25.0942 46.6415ZM28.3495 42.8715L27.5104 30.7906C27.3752 28.8445 25.6986 27.3773 23.7656 27.5134L11.7653 28.3581C9.83224 28.4942 8.37477 30.1821 8.50995 32.1281L9.34909 44.209C9.48426 46.1551 11.1609 47.6223 13.0939 47.4862L13.1289 47.9896L12.9225 47.9992C10.8015 48.04 8.99872 46.3987 8.84907 44.2442L8.00993 32.1633C7.85545 29.9393 9.52112 28.0103 11.7303 27.8548L23.7306 27.01C25.9398 26.8545 27.8559 28.5313 28.0104 30.7554L28.8495 42.8363C29.004 45.0603 27.3384 46.9893 25.1292 47.1448L25.0942 46.6415C27.0272 46.5054 28.4847 44.8175 28.3495 42.8715Z" fill="black"/>
<path d="M16.6734 34.5984L16.4635 34.6132C16.3185 34.1826 16.2332 33.7826 16.2076 33.4132C16.1474 32.5475 16.3864 31.8462 16.9244 31.3096C17.4617 30.7614 18.411 30.4394 19.7723 30.3435C20.6884 30.279 21.3592 30.3652 21.7848 30.602C22.2104 30.8389 22.4408 31.2112 22.4761 31.7191C22.5362 32.5849 22.0733 33.0989 21.0873 33.2611C20.7327 33.3092 20.4623 33.3747 20.2763 33.4574C20.103 33.5392 19.9834 33.6578 19.9175 33.8132C19.8643 33.9678 19.8469 34.1778 19.8653 34.4433L19.653 34.4234C19.8366 34.3061 20.0473 34.2101 20.285 34.1353C20.5228 34.0606 20.7625 34.0147 21.0042 33.9977C21.6658 33.9511 22.2034 34.0525 22.6171 34.3018C23.0427 34.5386 23.2779 34.9802 23.3228 35.6267C23.3653 36.2385 23.1875 36.715 22.7892 37.0562C22.391 37.3974 21.8739 37.5904 21.2377 37.6352C21.0341 37.6495 20.8234 37.6528 20.6055 37.6449C20.3868 37.6255 20.1669 37.5888 19.9458 37.5347L20.028 37.3376C20.2358 37.7521 20.4214 38.2147 20.5847 38.7251C20.7599 39.2232 20.9037 39.7293 21.0161 40.2433C21.1278 40.7459 21.1988 41.2165 21.2293 41.6551C21.2638 42.1515 21.2 42.6141 21.038 43.0431C20.8888 43.4712 20.6321 43.8257 20.2681 44.1065C19.9159 44.3749 19.4536 44.5292 18.8811 44.5696C17.9523 44.6349 17.2739 44.4391 16.8458 43.982C16.4177 43.525 16.1784 42.9329 16.1279 42.2056C16.0982 41.7785 16.0967 41.2972 16.1235 40.7618C16.1629 40.2254 16.233 39.6695 16.3337 39.094C16.4343 38.5185 16.5616 37.9586 16.7156 37.4142L17.1033 37.4739C16.7043 37.8035 16.1676 37.9921 15.4933 38.0396C14.8444 38.0853 14.3323 37.9821 13.9568 37.7302C13.5813 37.4782 13.3739 37.0694 13.3346 36.5038C13.2929 35.9035 13.458 35.4279 13.83 35.0769C14.202 34.726 14.7187 34.5272 15.3803 34.4806C15.6348 34.4627 15.8718 34.4692 16.0913 34.5002C16.31 34.5196 16.504 34.5523 16.6734 34.5984Z" fill="white"/>
<path d="M21.2292 41.6548C21.1988 41.2162 21.128 40.7456 21.0164 40.2432C20.904 39.7293 20.7603 39.2233 20.5851 38.7254C20.4522 38.3097 20.3026 37.9262 20.1401 37.5741C20.296 37.6052 20.4506 37.6314 20.6053 37.6451C20.8231 37.653 21.0341 37.6495 21.2376 37.6352C21.8737 37.5904 22.3909 37.3969 22.7891 37.0557C23.1374 36.7572 23.3174 36.3555 23.3285 35.85L23.3228 35.6271C23.278 34.9808 23.0429 34.5384 22.6174 34.3015C22.2554 34.0834 21.7981 33.9786 21.2462 33.9871L21.0046 33.9982C20.7628 34.0152 20.5227 34.061 20.285 34.1358C20.1322 34.1838 19.9905 34.2403 19.8601 34.3059C19.8555 34.1043 19.8735 33.9398 19.9171 33.8129C19.983 33.6576 20.103 33.5394 20.2762 33.4576C20.4621 33.375 20.7325 33.3094 21.0869 33.2613C22.0111 33.1092 22.4764 32.6479 22.4815 31.8778L22.4763 31.7191C22.441 31.2112 22.21 30.8388 21.7844 30.602C21.3588 30.3653 20.6881 30.2791 19.7723 30.3435C18.4111 30.4394 17.4621 30.7615 16.9248 31.3096L16.8269 31.4124C16.3577 31.9347 16.1509 32.6016 16.2073 33.4131C16.2317 33.764 16.3111 34.1423 16.4432 34.5485C16.3339 34.5286 16.2169 34.5113 16.0914 34.5001C15.9269 34.4769 15.7525 34.4675 15.5684 34.4717L15.3806 34.481C14.719 34.5276 14.2022 34.7262 13.8302 35.0772L13.7004 35.2148C13.4203 35.5491 13.2982 35.979 13.3346 36.5041L13.3577 36.709C13.4289 37.1692 13.6283 37.5095 13.9566 37.7299C14.2852 37.9503 14.7186 38.0568 15.2565 38.0493L15.4933 38.0396C15.9248 38.0092 16.2993 37.9196 16.6181 37.7737C16.507 38.2042 16.4126 38.6443 16.334 39.0938L16.2636 39.5216C16.1995 39.9459 16.1526 40.3592 16.123 40.7615C16.0963 41.297 16.0985 41.7785 16.1281 42.2055L16.1555 42.4723C16.241 43.079 16.4717 43.5819 16.8462 43.9817C17.2208 44.3816 17.7866 44.5814 18.5444 44.5814L18.8812 44.5696C19.4536 44.5292 19.9159 44.3747 20.268 44.1064C20.632 43.8256 20.8889 43.4714 21.0382 43.0435C21.2001 42.6145 21.2637 42.1511 21.2292 41.6548ZM22.9763 31.6839C23.0134 32.2172 22.8901 32.7093 22.5452 33.0924C22.3761 33.2802 22.1685 33.4247 21.9331 33.5337C22.2702 33.5903 22.5808 33.6953 22.8586 33.8597C22.8636 33.8626 22.8698 33.8656 22.8749 33.8685C23.486 34.2158 23.7708 34.8424 23.8229 35.5919C23.8743 36.3334 23.6546 36.9778 23.1142 37.4409C22.6179 37.866 21.9915 38.088 21.2726 38.1386C21.1564 38.1467 21.0386 38.15 20.9192 38.1516C20.9669 38.2836 21.0129 38.4187 21.0572 38.5568L21.1874 38.9468C21.3116 39.3377 21.4177 39.7333 21.5053 40.1337L21.5852 40.5203C21.6569 40.9023 21.7049 41.2689 21.7293 41.6196C21.7684 42.1827 21.6969 42.7199 21.507 43.2229L21.5059 43.222C21.3231 43.739 21.0092 44.17 20.5726 44.5068L20.5708 44.5089C20.121 44.8517 19.557 45.0278 18.9161 45.0729C17.9129 45.1435 17.0544 44.9411 16.4807 44.3285C15.9608 43.7734 15.6853 43.0646 15.6281 42.2407C15.5967 41.7893 15.5952 41.2873 15.6227 40.7365L15.6239 40.7245C15.6647 40.17 15.7368 39.5968 15.8401 39.0061C15.8702 38.8339 15.9022 38.663 15.937 38.4934C15.8043 38.5148 15.6683 38.5331 15.5283 38.5429C14.8161 38.5931 14.1793 38.4864 13.6786 38.1505C13.1424 37.7907 12.8818 37.218 12.8346 36.5393C12.7844 35.8168 12.9862 35.1823 13.4877 34.7091C13.9662 34.2576 14.6041 34.0298 15.3456 33.9776C15.4929 33.9673 15.637 33.9635 15.7777 33.968C15.7446 33.7911 15.7191 33.6181 15.7073 33.4483C15.6387 32.4608 15.9139 31.6098 16.5675 30.9554L16.6982 30.8316C17.3755 30.2324 18.4276 29.9324 19.7374 29.8402C20.6773 29.774 21.4705 29.8501 22.0275 30.1601C22.6088 30.4836 22.9298 31.0136 22.9763 31.6839Z" fill="black"/>
<path d="M27.8959 30.7554C28.0504 28.5314 29.9665 26.8545 32.1757 27.0101L44.176 27.8548C46.3852 28.0104 48.0509 29.9394 47.8964 32.1634L47.0572 44.2443C46.9028 46.4683 44.9866 48.1452 42.7774 47.9897L30.7772 47.1449C28.568 46.9894 26.9023 45.0604 27.0568 42.8363L27.8959 30.7554Z" fill="#FDD692"/>
<path d="M42.8124 47.4862L42.7774 47.9896L30.7772 47.1448L30.8121 46.6415L42.8124 47.4862ZM46.5572 44.209L47.3964 32.1281C47.5315 30.1821 46.0741 28.4942 44.141 28.3581L32.1408 27.5134C30.2077 27.3773 28.5311 28.8445 28.3959 30.7906L27.5568 42.8715C27.4216 44.8175 28.8791 46.5054 30.8121 46.6415L30.7772 47.1448L30.5714 47.1254C28.4655 46.8687 26.9071 44.9907 27.0568 42.8363L27.8959 30.7554C28.0504 28.5313 29.9665 26.8545 32.1757 27.01L44.176 27.8548C46.3852 28.0103 48.0509 29.9393 47.8964 32.1633L47.0572 44.2442C46.9028 46.4683 44.9866 48.1451 42.7774 47.9896L42.8124 47.4862C44.7454 47.6223 46.4221 46.1551 46.5572 44.209Z" fill="black"/>
<path d="M40.9116 43.7745C40.2132 43.7253 39.761 43.5288 39.5549 43.185C39.3618 42.8294 39.2967 42.2865 39.3595 41.5564L39.66 41.6725C38.9143 43.0006 37.6202 43.5997 35.7778 43.47C34.9349 43.4107 34.247 43.2103 33.7141 42.8688C33.1941 42.5156 32.8131 42.0771 32.5711 41.5534C32.3412 41.0306 32.2477 40.4604 32.2906 39.8428C32.3633 38.7967 32.7879 37.997 33.5645 37.4437C34.354 36.8787 35.3629 36.6394 36.5912 36.7259C37.3378 36.7784 37.9857 36.9444 38.5351 37.2237C39.0844 37.503 39.5368 37.8705 39.8924 38.3262L39.317 38.2477C39.3853 37.2645 39.2593 36.5527 38.939 36.1122C38.6186 35.6717 38.1213 35.4277 37.447 35.3802C37.158 35.3599 36.8414 35.3883 36.4972 35.4654C36.1659 35.5307 35.8222 35.6015 35.466 35.6778C35.1106 35.7414 34.7523 35.7605 34.3911 35.7351C33.9094 35.7012 33.5393 35.5421 33.2807 35.2579C33.035 34.962 32.9271 34.5998 32.9569 34.1712C32.9971 33.5915 33.2678 33.0912 33.769 32.6705C34.2701 32.2499 34.9153 31.9343 35.7043 31.7239C36.5054 31.5143 37.3575 31.4413 38.2607 31.5049C39.4408 31.5879 40.4482 31.8932 41.2828 32.4205C42.1183 32.9353 42.6774 33.684 42.96 34.6664C43.1768 35.3783 43.3092 36.1729 43.3572 37.0502C43.4172 37.9283 43.413 38.859 43.3447 39.8421C43.2703 40.9134 43.1403 41.7402 42.9546 42.3224C42.769 42.9046 42.5053 43.304 42.1635 43.5206C41.8347 43.7254 41.4174 43.8101 40.9116 43.7745ZM37.563 40.765C37.8039 40.7819 38.0473 40.7611 38.2934 40.7024C38.5524 40.632 38.7715 40.5271 38.9506 40.3877C39.1305 40.2357 39.2284 40.0463 39.2442 39.8194C39.2599 39.5925 39.2064 39.4051 39.0836 39.2571C38.9607 39.1092 38.7871 38.9956 38.5627 38.9165C38.3503 38.8382 38.1177 38.7902 37.8648 38.7724C37.4072 38.7402 37.0329 38.8151 36.742 38.9973C36.451 39.1795 36.295 39.4218 36.274 39.7243C36.2547 40.0016 36.3594 40.2369 36.588 40.4303C36.8286 40.6246 37.1536 40.7361 37.563 40.765Z" fill="white"/>
<path d="M32.4564 34.1362C32.5075 33.4011 32.8569 32.7795 33.4477 32.2834C34.0173 31.8053 34.7339 31.4606 35.5764 31.2359L35.5784 31.235C36.4366 31.0106 37.3434 30.9345 38.2954 31.0015C39.5388 31.089 40.6277 31.4125 41.5437 31.9899C42.4878 32.5716 43.122 33.4236 43.4388 34.5181C43.6687 35.2733 43.8069 36.1072 43.8571 37.0154C43.9188 37.9194 43.9144 38.874 43.8447 39.8777C43.7693 40.9638 43.6354 41.8373 43.4316 42.4765C43.2275 43.1168 42.9115 43.6424 42.4305 43.9473L42.4274 43.95C41.985 44.2256 41.4548 44.3182 40.8767 44.2775C40.1359 44.2254 39.4635 44.0093 39.1258 43.4459L39.1153 43.4274C39.0725 43.3487 39.0374 43.2642 39.0051 43.1766C38.7991 43.3299 38.5787 43.4655 38.3395 43.5763C37.5967 43.9202 36.7236 44.0425 35.7427 43.9734C34.8438 43.9101 34.0683 43.694 33.4454 43.295L33.4331 43.2872C32.8453 42.8877 32.4006 42.3802 32.1168 41.766L32.1125 41.7578C31.8468 41.1536 31.7425 40.5003 31.7906 39.8076C31.8726 38.6272 32.3625 37.6819 33.2739 37.0321C34.1812 36.3828 35.3145 36.1305 36.6265 36.2229C37.3985 36.2773 38.0919 36.4473 38.6973 36.7431C38.6513 36.6072 38.5976 36.4969 38.535 36.4106C38.3227 36.1187 37.9782 35.9239 37.4116 35.884C37.18 35.8677 36.9123 35.889 36.6057 35.9577L36.5937 35.9608C36.2652 36.0255 35.924 36.0955 35.5702 36.1713L35.5623 36.1727L35.5533 36.175C35.1576 36.2458 34.7583 36.2672 34.3565 36.239C33.7817 36.1985 33.2777 36.0014 32.9112 35.5988L32.903 35.5903L32.8957 35.5819C32.5573 35.1742 32.4188 34.6787 32.4564 34.1362ZM38.7442 39.7844C38.7527 39.6626 38.7236 39.6108 38.6985 39.5806C38.6461 39.5176 38.5559 39.4485 38.3965 39.3924L38.3908 39.39C38.2276 39.3298 38.0411 39.2903 37.8296 39.2754C37.4422 39.2482 37.182 39.3161 37.0066 39.4259C36.8308 39.536 36.7826 39.6424 36.7744 39.7593C36.7674 39.8595 36.7927 39.9417 36.9061 40.0393C37.0448 40.1496 37.2607 40.2381 37.5982 40.2619L37.5632 40.7653L37.4131 40.7507C37.0737 40.7074 36.7988 40.6006 36.5884 40.4309C36.3885 40.2617 36.2825 40.06 36.2722 39.8267L36.2744 39.7241C36.2954 39.4217 36.451 39.1794 36.7419 38.9973C37.0329 38.8152 37.4071 38.7399 37.8646 38.772C38.1174 38.7898 38.3507 38.8378 38.5631 38.9161C38.7872 38.9951 38.9603 39.1092 39.0831 39.2569C39.2059 39.4049 39.26 39.5927 39.2442 39.8196L39.2345 39.9029C39.2027 40.0931 39.108 40.2548 38.9506 40.3877C38.7716 40.527 38.5526 40.6317 38.2938 40.7021C38.0478 40.7607 37.804 40.7822 37.5632 40.7653L37.5982 40.2619C37.7835 40.2749 37.9735 40.2592 38.1698 40.2132C38.3681 40.1585 38.5188 40.082 38.6344 39.994C38.7096 39.9283 38.7385 39.8661 38.7442 39.7844ZM32.9523 34.3292C32.9565 34.6895 33.0655 34.9994 33.2803 35.2582C33.5067 35.507 33.8189 35.6593 34.2161 35.7163L34.3914 35.7356C34.6624 35.7546 34.9318 35.7484 35.1994 35.7174L35.4661 35.6779L36.4976 35.465C36.8414 35.388 37.1578 35.3603 37.4465 35.3806L37.692 35.4078C38.2431 35.4923 38.6592 35.7267 38.9394 36.1121C39.2025 36.4739 39.3313 37.0191 39.3322 37.7471C39.1499 37.5943 38.9516 37.456 38.7369 37.3327L38.5354 37.2237C38.0548 36.9793 37.4983 36.8214 36.8666 36.7506L36.5915 36.7263C35.3633 36.6398 34.3537 36.8788 33.5642 37.4438L33.4234 37.5505C32.7365 38.0981 32.3588 38.862 32.2906 39.8428C32.2477 40.4604 32.3413 41.0311 32.5712 41.5539C32.8132 42.0774 33.1946 42.5152 33.7144 42.8684C34.2473 43.2098 34.9349 43.4107 35.7777 43.47C37.3796 43.5828 38.5654 43.1431 39.3382 42.1538C39.3472 42.5905 39.419 42.9341 39.5551 43.1847C39.7354 43.4855 40.104 43.6734 40.6612 43.7486L40.9116 43.7742C41.3543 43.8053 41.7291 43.7445 42.0362 43.5915L42.1638 43.5205C42.4626 43.331 42.7017 43.0017 42.8811 42.5326L42.9546 42.3224C43.0938 41.8857 43.2017 41.3114 43.2784 40.5995L43.3447 39.8425C43.413 38.8594 43.4171 37.9285 43.3571 37.0504C43.3151 36.2828 43.2089 35.5783 43.0377 34.9374L42.9604 34.6662C42.6954 33.7452 42.1871 33.0298 41.4363 32.5198L41.2831 32.4211C40.4485 31.8937 39.4405 31.5879 38.2604 31.5049C37.3574 31.4413 36.5054 31.5145 35.7044 31.7241C34.9154 31.9345 34.2703 32.25 33.7692 32.6706L33.5921 32.832C33.204 33.2176 32.9917 33.664 32.9564 34.1714L32.9523 34.3292Z" fill="black"/>
<path d="M46.1036 32.1634C45.9491 29.9394 47.6148 28.0104 49.824 27.8548L61.8243 27.0101C64.0335 26.8545 65.9496 28.5314 66.1041 30.7554L66.9432 42.8363C67.0977 45.0604 65.432 46.9894 63.2229 47.1449L51.2226 47.9897C49.0134 48.1452 47.0972 46.4683 46.9428 44.2443L46.1036 32.1634Z" fill="#BAD29F"/>
<path d="M63.1879 46.6415L63.2229 47.1449L51.2226 47.9897L51.1876 47.4863L63.1879 46.6415ZM66.4432 42.8715L65.6041 30.7906C65.4689 28.8446 63.7923 27.3774 61.8592 27.5134L49.859 28.3582C47.9259 28.4943 46.4685 30.1822 46.6036 32.1282L47.4428 44.2091C47.5779 46.1551 49.2546 47.6224 51.1876 47.4863L51.2226 47.9897L51.0162 47.9993C48.8952 48.0401 47.0924 46.3988 46.9428 44.2443L46.1036 32.1634C45.9491 29.9394 47.6148 28.0104 49.824 27.8548L61.8243 27.0101C64.0335 26.8545 65.9496 28.5314 66.1041 30.7554L66.9432 42.8363C67.0977 45.0604 65.432 46.9894 63.2229 47.1449L63.1879 46.6415C65.1209 46.5054 66.5784 44.8176 66.4432 42.8715Z" fill="black"/>
<path d="M53.7191 31.7441C54.3272 31.7013 54.7584 31.839 55.0127 32.1572C55.2792 32.4746 55.4352 32.9614 55.4808 33.6175C55.4915 33.7719 55.491 33.94 55.4792 34.1219C55.4786 34.29 55.465 34.4461 55.4384 34.5902L55.3751 34.2068C55.5967 33.3508 55.9894 32.6703 56.5531 32.1652C57.116 31.6472 57.7319 31.3646 58.4008 31.3176C59.2278 31.2593 59.9319 31.4554 60.5131 31.9058C61.0935 32.3433 61.5482 32.9965 61.8775 33.8654C62.2179 34.7206 62.4297 35.7464 62.5128 36.9429C62.5548 37.5476 62.5721 38.1476 62.5645 38.7428C62.557 39.3381 62.5276 39.8831 62.4765 40.378C62.4244 40.86 62.3422 41.2602 62.2299 41.5783C62.0684 42.0681 61.8137 42.448 61.4658 42.7181C61.117 42.9754 60.6933 43.1216 60.1947 43.1567C59.6353 43.1961 59.1901 43.0335 58.8593 42.6689C58.5397 42.2906 58.3558 41.7541 58.3075 41.0594C58.2807 40.6734 58.2672 40.2154 58.2671 39.6853C58.2669 39.1553 58.2611 38.632 58.2497 38.1157C58.2504 37.5985 58.2392 37.1727 58.2159 36.8382C58.1427 35.7832 57.8081 35.2766 57.2121 35.3186C56.8838 35.3417 56.6157 35.5287 56.4078 35.8794C56.2 36.2302 56.0806 36.7105 56.0496 37.3203C56.0346 37.6317 56.031 38.0198 56.0388 38.4847C56.0588 38.9487 56.0728 39.4131 56.0806 39.878C56.0997 40.3292 56.1079 40.71 56.105 41.0205C56.0964 41.9519 55.9235 42.6299 55.5863 43.0545C55.2613 43.4781 54.7948 43.7114 54.1867 43.7542C53.4449 43.8064 52.8702 43.6271 52.4628 43.2162C52.0545 42.7924 51.8138 42.053 51.7405 40.998C51.7029 40.4577 51.6731 39.8521 51.651 39.1814C51.6288 38.5107 51.6127 37.8395 51.6028 37.1679C51.604 36.4826 51.6159 35.8612 51.6383 35.3037C51.6866 34.2402 51.8722 33.3932 52.195 32.7628C52.5179 32.1325 53.0259 31.7929 53.7191 31.7441Z" fill="white"/>
<path d="M57.716 36.8736C57.6816 36.3777 57.5883 36.0917 57.4927 35.9469C57.4239 35.8427 57.3628 35.8138 57.2475 35.8219C57.1216 35.8307 56.9845 35.892 56.8387 36.1381C56.6883 36.3918 56.5793 36.781 56.5506 37.3459C56.5365 37.6392 56.5314 38.0104 56.5388 38.4622C56.5588 38.9259 56.5727 39.3907 56.5806 39.8552L56.5817 39.8561C56.601 40.3124 56.609 40.703 56.606 41.0251C56.597 41.9927 56.4202 42.8058 55.9822 43.3621C55.5567 43.9169 54.9495 44.2063 54.222 44.2576C53.3802 44.3168 52.6457 44.1152 52.1077 43.5726L52.1035 43.5679C51.5691 43.0133 51.3162 42.123 51.2405 41.0333C51.2024 40.4856 51.1726 39.8736 51.1503 39.1981C51.128 38.5244 51.112 37.8499 51.102 37.1753L51.1015 37.1674C51.1028 36.4772 51.1148 35.8489 51.1375 35.2838L51.1373 35.2808C51.1874 34.178 51.3809 33.2508 51.7491 32.5318C52.1508 31.7474 52.8132 31.302 53.6839 31.2406C54.3647 31.1927 54.9923 31.3372 55.3943 31.8316C55.3954 31.833 55.3973 31.8348 55.3985 31.8362C55.3998 31.8378 55.4015 31.8392 55.4028 31.8408C55.5265 31.9901 55.6262 32.1599 55.7078 32.3469C55.8615 32.1456 56.0303 31.9578 56.2195 31.7883C56.8527 31.2072 57.5708 30.8702 58.3658 30.8142C59.2954 30.7488 60.123 30.9692 60.813 31.5015C61.4856 32.0085 61.9883 32.7478 62.342 33.678C62.7067 34.594 62.9272 35.674 63.0129 36.9078C63.0558 37.5261 63.0739 38.1402 63.0662 38.7495C63.0585 39.3571 63.0279 39.9179 62.9749 40.4306L62.9751 40.4325C62.9209 40.9336 62.8323 41.3715 62.7045 41.7369L62.7056 41.7378C62.518 42.3064 62.2112 42.7764 61.772 43.1175L61.7617 43.1251C61.3253 43.447 60.8075 43.6191 60.2296 43.6598C59.5425 43.7082 58.9393 43.5049 58.4897 43.0097L58.4833 43.0022L58.4779 42.9957C58.0661 42.5082 57.8599 41.8548 57.8071 41.0947C57.7792 40.6938 57.7663 40.2235 57.7661 39.6858C57.766 39.1593 57.7595 38.6396 57.7482 38.1271L57.7483 38.1152C57.749 37.6045 57.7381 37.1916 57.716 36.8736ZM58.2419 37.4087C58.2475 37.6215 58.2502 37.8571 58.2498 38.1155L58.2627 38.895C58.2656 39.1567 58.2665 39.4201 58.2666 39.6851C58.2667 40.2152 58.2803 40.6735 58.3071 41.0595L58.3315 41.3127C58.4034 41.8858 58.5799 42.3375 58.8595 42.6685C59.1903 43.0331 59.6352 43.1958 60.1947 43.1564C60.6932 43.1213 61.1168 42.9754 61.4655 42.7182C61.8134 42.4481 62.0688 42.0683 62.2303 41.5786C62.3145 41.3401 62.3817 41.0553 62.432 40.7247L62.4766 40.3777C62.5278 39.8829 62.5567 39.3375 62.5642 38.7424C62.5699 38.2961 62.5616 37.8472 62.5394 37.3956L62.5129 36.943C62.4297 35.7466 62.2176 34.721 61.8771 33.8658C61.589 33.1054 61.2051 32.5098 60.7246 32.0797L60.5133 31.9059C60.0048 31.5119 59.402 31.3127 58.7053 31.308L58.4008 31.3176C57.7319 31.3647 57.1157 31.647 56.5529 32.1649C56.0735 32.5944 55.7193 33.1514 55.4873 33.8345C55.487 33.7594 55.4859 33.6871 55.481 33.6176C55.4412 33.0436 55.3167 32.5992 55.1078 32.2845L55.0126 32.1578C54.7583 31.8395 54.327 31.7012 53.7189 31.744C53.0258 31.7929 52.5178 32.1329 52.195 32.7632L52.0806 33.0093C51.8281 33.6083 51.6807 34.3732 51.6384 35.3039L51.6124 36.1879C51.6065 36.4985 51.6036 36.8251 51.603 37.1676L51.6219 38.175C51.6299 38.5106 51.6395 38.8463 51.6506 39.1817L51.6896 40.1383C51.7045 40.4412 51.7217 40.7278 51.7405 40.9981L51.7758 41.379C51.8765 42.233 52.1055 42.8458 52.4628 43.2166C52.8193 43.5761 53.3042 43.7585 53.9169 43.7633L54.1871 43.7542C54.795 43.7113 55.261 43.4776 55.586 43.0541C55.881 42.6825 56.0508 42.1173 56.0942 41.3575L56.1052 41.0209C56.1081 40.7105 56.0999 40.3295 56.0808 39.8785C56.0729 39.4136 56.0589 38.9485 56.0389 38.4845C56.0311 38.0197 56.0343 37.6313 56.0493 37.32C56.0764 36.7868 56.1714 36.3527 56.3337 36.0176L56.4076 35.88C56.6154 35.5292 56.8842 35.3416 57.2125 35.3185L57.3204 35.3168C57.8487 35.3415 58.1473 35.8491 58.2161 36.8384L58.2419 37.4087Z" fill="black"/>
<path d="M65.9896 30.7554C66.1441 28.5314 68.0602 26.8545 70.2694 27.0101L82.2697 27.8548C84.4789 28.0104 86.1445 29.9394 85.9901 32.1634L85.1509 44.2443C84.9964 46.4683 83.0803 48.1452 80.8711 47.9897L68.8708 47.1449C66.6616 46.9894 64.996 45.0604 65.1505 42.8363L65.9896 30.7554Z" fill="#7C77B9"/>
<path d="M80.9061 47.4862L80.8711 47.9896L68.8708 47.1448L68.9058 46.6415L80.9061 47.4862ZM84.6509 44.209L85.4901 32.1281C85.6252 30.1821 84.1678 28.4942 82.2347 28.3581L70.2344 27.5134C68.3014 27.3773 66.6248 28.8445 66.4896 30.7906L65.6505 42.8715C65.5153 44.8175 66.9728 46.5054 68.9058 46.6415L68.8708 47.1448L68.6651 47.1254C66.5592 46.8687 65.0008 44.9907 65.1505 42.8363L65.9896 30.7554C66.1441 28.5313 68.0602 26.8545 70.2694 27.01L82.2697 27.8548C84.4789 28.0103 86.1445 29.9393 85.9901 32.1633L85.1509 44.2442C84.9964 46.4683 83.0803 48.1451 80.8711 47.9896L80.9061 47.4862C82.8391 47.6223 84.5157 46.1551 84.6509 44.209Z" fill="black"/>
<path d="M76.828 31.5382C78.2153 31.6359 79.194 31.9488 79.764 32.4771C80.3477 32.9936 80.6134 33.6289 80.561 34.3831C80.5281 34.8562 80.3405 35.2348 79.998 35.519C79.6684 35.8041 79.221 35.9267 78.6558 35.887C78.2447 35.858 77.806 35.7629 77.3396 35.6016C76.8869 35.4284 76.3587 35.3206 75.755 35.2781C75.4724 35.2582 75.2505 35.294 75.0892 35.3854C74.9408 35.4777 74.8608 35.607 74.8493 35.7732C74.8378 35.9393 74.9051 36.0854 75.0512 36.2113C75.2111 36.3253 75.565 36.4337 76.1129 36.5366C77.0839 36.682 77.8953 36.8933 78.5473 37.1704C79.2121 37.4484 79.7011 37.8426 80.0142 38.3528C80.3281 38.8502 80.4558 39.5208 80.3972 40.3645C80.3111 41.6046 79.7796 42.4728 78.8028 42.9693C77.8389 43.4667 76.5284 43.6571 74.8713 43.5404C73.728 43.4599 72.8171 43.2866 72.1386 43.0205C71.4609 42.7415 70.9817 42.393 70.7009 41.975C70.421 41.5442 70.2993 41.0668 70.3357 40.5426C70.3712 40.0313 70.5657 39.6467 70.9193 39.389C71.2865 39.1194 71.7014 39.0008 72.1638 39.0334C72.4593 39.0542 72.7709 39.1211 73.0986 39.2341C73.4273 39.3343 73.7748 39.4423 74.1411 39.558C74.5074 39.6737 74.8832 39.7451 75.2686 39.7722C75.7824 39.8084 76.0495 39.6795 76.0699 39.3855C76.077 39.2832 76.0511 39.1914 75.9922 39.1102C75.9471 39.0171 75.8304 38.9318 75.6421 38.8543C75.4676 38.765 75.189 38.6875 74.8063 38.6221C73.9528 38.4592 73.2184 38.2533 72.6032 38.0045C71.9879 37.7556 71.5216 37.4081 71.204 36.9618C70.8874 36.5027 70.7548 35.9024 70.8063 35.161C70.8898 33.9593 71.4583 33.0229 72.5117 32.352C73.5652 31.6811 75.0039 31.4098 76.828 31.5382Z" fill="white"/>
<path d="M80.3972 40.3649C80.4485 39.6267 80.357 39.0207 80.123 38.5476L80.0139 38.3532C79.7399 37.9066 79.3315 37.5486 78.7881 37.2799L78.5475 37.1701C77.8955 36.893 77.0835 36.6818 76.1126 36.5363C75.5654 36.4336 75.2118 36.3256 75.0517 36.2117C74.942 36.1172 74.8768 36.0108 74.8559 35.8936L74.8495 35.7736C74.8611 35.6074 74.941 35.4778 75.0895 35.3855C75.2507 35.2941 75.4729 35.2583 75.7554 35.2782L76.194 35.3219C76.6182 35.3783 77.0001 35.4714 77.3395 35.6011C77.6893 35.7222 78.0239 35.806 78.3426 35.8526L78.6562 35.8875C79.2212 35.9272 79.6683 35.8036 79.9978 35.5186C80.2974 35.2699 80.479 34.9493 80.5416 34.5561L80.5614 34.3836C80.6138 33.6293 80.3473 32.9934 79.7635 32.477C79.1935 31.9489 78.2148 31.6359 76.8277 31.5382C75.004 31.4099 73.5655 31.6811 72.5121 32.3518L72.3197 32.4805C71.3889 33.1406 70.8849 34.0344 70.8067 35.161L70.7956 35.4329C70.7909 36.0504 70.9269 36.5599 71.2037 36.9614C71.5212 37.4076 71.9881 37.7555 72.6033 38.0044C73.2185 38.2532 73.9532 38.459 74.8068 38.6218C75.1893 38.6873 75.468 38.7652 75.6424 38.8546L75.7698 38.9139C75.8842 38.975 75.9588 39.0405 75.9926 39.1104L76.0305 39.1733C76.0622 39.2381 76.075 39.3089 76.0697 39.3855L76.0508 39.4879C75.979 39.7092 75.7182 39.8044 75.2685 39.7727L75.3035 39.2693C75.3145 39.2701 75.3254 39.2691 75.3359 39.2697C75.2149 39.2232 75.0173 39.1703 74.7221 39.1197L74.7134 39.1181C74.3236 39.0438 73.9555 38.9577 73.6093 38.8646C73.8289 38.9324 74.0566 39.0024 74.2914 39.0766C74.62 39.1804 74.957 39.245 75.3035 39.2693L75.2685 39.7727L74.981 39.7436C74.7908 39.7189 74.6028 39.6835 74.4173 39.6367L74.1411 39.558L73.0989 39.2337C72.8532 39.149 72.6164 39.0901 72.3889 39.0573L72.1638 39.0335C71.7014 39.001 71.2865 39.1199 70.9193 39.3895L70.7944 39.4913C70.5197 39.7446 70.3668 40.0952 70.3357 40.5428L70.3291 40.737C70.3318 41.1854 70.4565 41.5985 70.7014 41.9754C70.9821 42.3931 71.461 42.7413 72.1381 43.0201C72.7319 43.253 73.5041 43.4154 74.4537 43.5061L74.8714 43.5405C76.5284 43.6571 77.8392 43.467 78.8031 42.9696C79.7188 42.5041 80.2426 41.7116 80.3755 40.5926L80.3972 40.3649ZM81.0614 34.4188C81.0196 35.0202 80.7726 35.5305 80.3171 35.9086L80.3162 35.9075C79.86 36.298 79.2726 36.4366 78.6212 36.3909C78.159 36.3583 77.6766 36.2516 77.1767 36.0787L77.1614 36.0737C76.7645 35.9219 76.2867 35.8215 75.7204 35.7816C75.5286 35.7681 75.4197 35.7904 75.3641 35.8118C75.3747 35.8173 75.3883 35.825 75.4058 35.8325C75.4485 35.851 75.5064 35.8722 75.582 35.8953C75.7334 35.9417 75.9374 35.9904 76.1981 36.0395C77.1898 36.1887 78.0404 36.4076 78.7398 36.7045L79.0099 36.8272C79.6229 37.1305 80.1089 37.5473 80.4405 38.0878C80.8297 38.7075 80.96 39.4964 80.8972 40.4001C80.8006 41.7901 80.1861 42.832 79.0289 43.4202L79.028 43.4191C77.9508 43.974 76.5382 44.1636 74.8364 44.0438C73.6682 43.9616 72.7009 43.7824 71.9563 43.4904L71.9486 43.4879C71.2194 43.1877 70.6416 42.7877 70.2853 42.2573L70.2818 42.2512C69.9408 41.7262 69.7919 41.1391 69.8357 40.5076C69.8796 39.875 70.1307 39.3409 70.6248 38.9805C71.0893 38.6398 71.6214 38.4895 72.1988 38.5301C72.4216 38.5458 72.6479 38.5848 72.8779 38.6431C72.7184 38.5885 72.5645 38.5321 72.4167 38.4724C71.7322 38.1955 71.1806 37.7955 70.7966 37.2558L70.7921 37.2495C70.3918 36.669 70.2498 35.944 70.3067 35.1258C70.4018 33.7564 71.062 32.6784 72.2434 31.9258C73.4204 31.1762 74.9798 30.9023 76.8627 31.0349C78.2778 31.1345 79.3964 31.4564 80.095 32.0982L80.2213 32.2158C80.8315 32.8132 81.1212 33.5586 81.0614 34.4188Z" fill="black"/>
<path d="M8.00993 9.16332C7.85545 6.9393 9.52112 5.0103 11.7303 4.85478L23.7306 4.01C25.9398 3.85448 27.8559 5.53134 28.0104 7.75536L28.8495 19.8362C29.004 22.0602 27.3384 23.9892 25.1292 24.1448L13.1289 24.9895C10.9197 25.1451 9.00356 23.4682 8.84907 21.2442L8.00993 9.16332Z" fill="#FF6D72"/>
<path d="M25.0942 23.6415L25.1292 24.1448L13.1289 24.9896L13.0939 24.4862L25.0942 23.6415ZM28.3495 19.8715L27.5104 7.79062C27.3752 5.8446 25.6986 4.37735 23.7656 4.51343L11.7653 5.35821C9.83224 5.49429 8.37478 7.18216 8.50995 9.12818L9.34909 21.209C9.48426 23.1551 11.1609 24.6223 13.0939 24.4862L13.1289 24.9896L12.9225 24.9992C10.8016 25.04 8.99873 23.3987 8.84908 21.2442L8.00994 9.16338C7.85546 6.93936 9.52113 5.01036 11.7303 4.85484L23.7306 4.01006C25.9398 3.85454 27.8559 5.5314 28.0104 7.75542L28.8495 19.8363C29.004 22.0603 27.3384 23.9893 25.1292 24.1448L25.0942 23.6415C27.0272 23.5054 28.4847 21.8175 28.3495 19.8715Z" fill="black"/>
<path d="M11.2818 12.8644C11.1956 11.6247 11.3354 10.7275 11.7009 10.1729C12.0664 9.61823 12.6696 9.31133 13.5103 9.25215C14.0465 9.2144 14.4697 9.31389 14.78 9.55061C15.1025 9.78648 15.3401 10.1223 15.4928 10.5582C15.6447 10.9824 15.7394 11.4635 15.7767 12.0015C15.8027 12.3757 15.8153 12.8215 15.8145 13.3386C15.8251 13.8433 15.8247 14.3663 15.8133 14.9078C15.8133 15.4366 15.7991 15.9371 15.7707 16.4093L15.8438 16.4041C16.042 15.0268 16.2426 13.949 16.4457 13.1708C16.6609 12.3917 16.8981 11.8403 17.1573 11.5164C17.4156 11.1809 17.7153 11.0011 18.0565 10.9771C18.422 10.9514 18.7559 11.0866 19.0581 11.3826C19.3716 11.6661 19.688 12.1669 20.0073 12.8848C20.3379 13.5902 20.7059 14.5692 21.1113 15.8217L21.1844 15.8166C21.1145 15.3396 21.0434 14.8452 20.9711 14.3331C20.898 13.8094 20.8318 13.2969 20.7725 12.7957C20.7246 12.2819 20.6856 11.8087 20.6555 11.3759C20.5986 10.5572 20.634 9.92009 20.7615 9.4645C20.9012 9.00805 21.1173 8.68138 21.4097 8.4845C21.7022 8.28762 22.0494 8.17503 22.4515 8.14672C23.2557 8.09011 23.9056 8.36757 24.4011 8.9791C24.8966 9.59063 25.1878 10.5221 25.2748 11.7736C25.3276 12.5338 25.3455 13.32 25.3284 14.1321C25.3227 14.9318 25.2854 15.716 25.2163 16.4848C25.1465 17.2419 25.0486 17.9481 24.9227 18.6033C24.7708 19.4132 24.5092 20.0546 24.138 20.5273C23.7781 20.9875 23.2936 21.239 22.6843 21.2819C22.3432 21.3059 21.9959 21.2422 21.6425 21.0908C21.3014 20.9385 20.9513 20.6576 20.5922 20.248C20.2323 19.8267 19.879 19.2346 19.5321 18.4716C19.1853 17.7085 18.842 16.7337 18.5025 15.547L18.4294 15.5522C18.2564 16.7632 18.0496 17.7532 17.8092 18.5223C17.5801 19.2789 17.3149 19.8676 17.0135 20.2884C16.7122 20.7092 16.384 21.0085 16.029 21.1863C15.674 21.3641 15.2833 21.468 14.8568 21.498C14.2232 21.5426 13.7033 21.3735 13.2972 20.9908C12.9024 20.5954 12.5673 19.9139 12.2919 18.946C12.1782 18.5426 12.0665 18.0804 11.9568 17.5592C11.8585 17.0255 11.759 16.4742 11.6583 15.9054C11.5697 15.3358 11.4889 14.7891 11.4158 14.2653C11.3541 13.729 11.3094 13.2621 11.2818 12.8644Z" fill="white"/>
<path d="M18.0215 10.474C18.5447 10.4372 19.0077 10.6366 19.3922 11.0069C19.3972 11.0113 19.403 11.0161 19.4079 11.0206C19.6966 11.2863 19.9621 11.6725 20.2128 12.1534C20.1912 11.8946 20.1718 11.6473 20.1554 11.4116C20.097 10.5711 20.129 9.86615 20.2796 9.32813L20.2826 9.31606C20.4445 8.78742 20.7141 8.34553 21.131 8.06487C21.506 7.81239 21.9404 7.67693 22.4167 7.6434C23.3778 7.57578 24.1877 7.91721 24.7896 8.65992C25.3788 9.38705 25.6845 10.4394 25.7748 11.7382C25.8287 12.5146 25.8473 13.3165 25.8299 14.1429L25.8289 14.142C25.823 14.9529 25.7852 15.7488 25.7151 16.53L25.7152 16.532C25.6441 17.302 25.5432 18.0234 25.4141 18.696L25.4151 18.6969C25.2535 19.5589 24.9681 20.2849 24.5316 20.8407L24.5306 20.8398C24.0785 21.4175 23.461 21.7331 22.7189 21.7854C22.2895 21.8155 21.8629 21.7336 21.4458 21.5549L21.4397 21.5524C21.0097 21.3604 20.6031 21.0236 20.2163 20.5824L20.212 20.5767C19.8102 20.1063 19.4339 19.4681 19.0765 18.6818C18.9138 18.3239 18.7546 17.9231 18.5956 17.4817C18.5003 17.9182 18.398 18.3139 18.2875 18.6682L18.2885 18.6691C18.0509 19.4538 17.7663 20.1007 17.4205 20.5836C17.0854 21.0515 16.6986 21.4144 16.2523 21.638C15.8341 21.8474 15.3787 21.9672 14.8919 22.0015C14.1409 22.0543 13.477 21.852 12.9543 21.3594L12.9437 21.3482C12.4573 20.8611 12.0928 20.0788 11.81 19.0846C11.6925 18.6679 11.5783 18.1929 11.4669 17.6634L11.4641 17.6518L11.9572 17.5588C12.0668 18.0799 12.1783 18.5426 12.292 18.946C12.5674 19.9138 12.9028 20.5951 13.2976 20.9904C13.6531 21.3253 14.0952 21.4969 14.6248 21.5045L14.8569 21.4981C15.2302 21.4718 15.5761 21.3887 15.8946 21.2492L16.0286 21.1864C16.3836 21.0086 16.712 20.709 17.0133 20.2882C17.3147 19.8674 17.5802 19.2785 17.8092 18.522C18.0496 17.753 18.2562 16.7629 18.4292 15.5521L18.5025 15.5469C18.842 16.7336 19.1851 17.7088 19.5319 18.4719C19.8788 19.2348 20.2327 19.8264 20.5925 20.2477C20.9514 20.6571 21.3012 20.9383 21.6422 21.0906C21.9954 21.2419 22.3429 21.306 22.684 21.282C23.2931 21.2391 23.7781 20.9877 24.138 20.5276C24.5092 20.0549 24.7709 19.413 24.9228 18.6031C25.0172 18.1118 25.0961 17.5919 25.159 17.0433L25.2164 16.4851C25.2854 15.7163 25.323 14.9314 25.3287 14.1318C25.3457 13.3198 25.3275 12.5335 25.2747 11.7734C25.1932 10.6003 24.9318 9.7086 24.4913 9.09784L24.4015 8.97868C23.937 8.40539 23.3363 8.12629 22.6004 8.14025L22.4517 8.14677C22.0496 8.17507 21.7018 8.28803 21.4094 8.48491L21.304 8.56445C21.0648 8.76507 20.8833 9.06475 20.761 9.46416C20.6335 9.91976 20.5985 10.5577 20.6554 11.3764L20.7075 12.0554C20.727 12.292 20.7487 12.5388 20.7726 12.7957L20.8666 13.5557C20.8997 13.8119 20.9341 14.071 20.9707 14.3328C21.043 14.8448 21.1148 15.3396 21.1846 15.8165L21.1114 15.8217C20.7061 14.5693 20.3381 13.5905 20.0075 12.8851C19.6883 12.1674 19.3717 11.6666 19.0582 11.3831C18.7937 11.124 18.5048 10.9874 18.1918 10.9748L18.0565 10.9774C17.7153 11.0014 17.4161 11.1814 17.1578 11.5169L17.0609 11.6482C16.8389 11.9813 16.6337 12.4888 16.4453 13.1705C16.2423 13.9487 16.0418 15.0267 15.8436 16.4039L15.7704 16.4091C15.7988 15.937 15.8133 15.4361 15.8133 14.9073C15.8246 14.3661 15.8248 13.8429 15.8142 13.3384C15.815 12.8213 15.8023 12.3756 15.7763 12.0014C15.7389 11.4635 15.6444 10.9824 15.4925 10.5582C15.3398 10.1224 15.1022 9.78615 14.7797 9.55031C14.5083 9.34341 14.1505 9.24158 13.7065 9.24452L13.5108 9.25237C12.67 9.31155 12.0668 9.6185 11.7013 10.1731L11.6351 10.2805C11.3188 10.8405 11.201 11.7018 11.2817 12.8641C11.3094 13.2618 11.3536 13.7292 11.4154 14.2655C11.4885 14.7891 11.5693 15.3357 11.6578 15.9053C11.7585 16.4739 11.8589 17.0252 11.9572 17.5588L11.4641 17.6518C11.3657 17.117 11.2654 16.564 11.1645 15.9943L11.1628 15.9836C11.0739 15.4117 10.9933 14.8624 10.9198 14.336L10.9179 14.3233C10.8556 13.7819 10.81 13.3067 10.7817 12.8993C10.6937 11.6323 10.823 10.593 11.2835 9.89424C11.7581 9.17421 12.5266 8.81582 13.4758 8.749C14.0826 8.70635 14.6364 8.81336 15.0733 9.14237C15.489 9.44639 15.7831 9.87112 15.9644 10.3867L16.0792 10.753C16.1817 11.1293 16.2463 11.5343 16.2763 11.9662C16.2788 12.0026 16.2798 12.0398 16.2821 12.0774C16.4265 11.7226 16.5858 11.4257 16.7667 11.1996C17.0897 10.7834 17.5088 10.5101 18.0215 10.474Z" fill="black"/>
<path d="M27.8959 7.75542C28.0504 5.5314 29.9665 3.85454 32.1757 4.01006L44.176 4.85484C46.3852 5.01036 48.0509 6.93936 47.8964 9.16338L47.0572 21.2442C46.9028 23.4683 44.9866 25.1451 42.7774 24.9896L30.7771 24.1448C28.568 23.9893 26.9023 22.0603 27.0568 19.8363L27.8959 7.75542Z" fill="#FDD692"/>
<path d="M42.8124 24.4862L42.7774 24.9895L30.7771 24.1448L30.8121 23.6414L42.8124 24.4862ZM46.5572 21.209L47.3964 9.12812C47.5315 7.1821 46.0741 5.49422 44.141 5.35815L32.1408 4.51337C30.2077 4.37729 28.5311 5.84454 28.3959 7.79056L27.5568 19.8714C27.4216 21.8174 28.8791 23.5053 30.8121 23.6414L30.7771 24.1448L30.5714 24.1253C28.4655 23.8686 26.9071 21.9907 27.0568 19.8362L27.8959 7.75536C28.0504 5.53134 29.9665 3.85448 32.1757 4.01L44.176 4.85478C46.3852 5.01029 48.0509 6.9393 47.8964 9.16332L47.0572 21.2442C46.9028 23.4682 44.9866 25.1451 42.7774 24.9895L42.8124 24.4862C44.7454 24.6223 46.4221 23.155 46.5572 21.209Z" fill="black"/>
<path d="M37.4801 20.57C35.9031 20.459 34.6616 20.1562 33.7554 19.6616C32.8493 19.1671 32.2126 18.5022 31.8455 17.667C31.4912 16.8328 31.3528 15.8571 31.4304 14.7399C31.5288 13.324 31.9007 12.1427 32.5462 11.1961C33.2054 10.2373 34.06 9.52731 35.1098 9.06602C36.1725 8.60562 37.3513 8.42101 38.6462 8.51216C40.1847 8.62047 41.2912 9.01165 41.9659 9.68572C42.6414 10.3468 42.9445 11.1775 42.875 12.1777C42.82 12.9701 42.5542 13.6432 42.0777 14.1971C41.614 14.7519 40.9867 15.1581 40.1958 15.4157C39.4177 15.6742 38.5287 15.7683 37.5286 15.6979C37.0671 15.6654 36.6206 15.6013 36.1892 15.5057C35.7578 15.41 35.3726 15.2981 35.0337 15.1698L35.571 14.1111C35.5109 14.4202 35.47 14.7306 35.4484 15.0423C35.4096 15.6009 35.5808 16.0111 35.962 16.2729C36.356 16.5356 36.912 16.6922 37.63 16.7428C38.3223 16.7915 38.917 16.7616 39.4141 16.653C39.9122 16.5314 40.352 16.4122 40.7338 16.2955C41.1164 16.1658 41.4744 16.1127 41.8077 16.1362C42.0385 16.1524 42.2716 16.2276 42.5071 16.3616C42.7426 16.4957 42.9351 16.692 43.0846 16.9505C43.2341 17.2091 43.2944 17.5462 43.2656 17.9619C43.2259 18.5334 42.9787 19.0317 42.524 19.4565C42.0694 19.8814 41.4163 20.1944 40.5649 20.3956C39.7263 20.5976 38.6981 20.6557 37.4801 20.57ZM36.837 13.6911C37.4524 13.7345 37.9949 13.6225 38.4644 13.3553C38.9347 13.0752 39.1853 12.7142 39.2159 12.2726C39.2358 11.9868 39.1495 11.7457 38.957 11.5494C38.7645 11.3531 38.4887 11.2424 38.1297 11.2171C37.7323 11.1891 37.3487 11.2404 36.9789 11.371C36.6219 11.5025 36.3258 11.684 36.0907 11.9155C35.8556 12.147 35.7277 12.4121 35.707 12.7109C35.6871 12.9967 35.7743 13.2247 35.9686 13.395C36.1758 13.5663 36.4652 13.665 36.837 13.6911Z" fill="white"/>
<path d="M42.8754 12.1778C42.9405 11.2399 42.6777 10.4512 42.0878 9.81153L41.9661 9.68539C41.2914 9.01136 40.1846 8.62045 38.6462 8.51214C37.3513 8.42099 36.1727 8.60605 35.1101 9.06642C34.0603 9.5277 33.2053 10.2371 32.5461 11.1958C31.9006 12.1424 31.5288 13.3241 31.4304 14.74L31.4116 15.1526C31.391 16.099 31.5354 16.9371 31.8454 17.6669C32.2125 18.5021 32.8497 19.1671 33.7559 19.6617C34.6619 20.1561 35.9032 20.459 37.4799 20.57C38.6977 20.6557 39.7261 20.5979 40.5646 20.3959C41.3097 20.2199 41.9031 19.9577 42.3444 19.6103L42.5238 19.457C42.9217 19.0852 43.161 18.6568 43.2411 18.1727L43.2656 17.962C43.2944 17.5464 43.2341 17.209 43.0846 16.9505C42.9726 16.7568 42.8364 16.598 42.6761 16.4742L42.5072 16.3615C42.3307 16.261 42.1554 16.1938 41.9815 16.1595L41.8075 16.1364C41.4742 16.113 41.1161 16.1663 40.7336 16.2959C40.352 16.4126 39.9122 16.5311 39.4144 16.6526L39.2234 16.6895C38.767 16.7674 38.2359 16.785 37.6299 16.7423L37.6649 16.239C38.3201 16.2851 38.8609 16.2558 39.2963 16.1622L39.5272 16.1023C38.8962 16.2187 38.2178 16.2522 37.4938 16.2013C37.3486 16.191 37.2046 16.1762 37.0619 16.16C37.2405 16.1955 37.4407 16.2232 37.6649 16.239L37.6299 16.7423C36.912 16.6918 36.3558 16.5359 35.9618 16.2732C35.6442 16.0551 35.4748 15.7335 35.4488 15.3094C35.6783 15.3803 35.9246 15.4472 36.1888 15.5057C36.5124 15.5775 36.8449 15.6316 37.1854 15.6678L37.5288 15.6979C38.5287 15.7683 39.4181 15.6739 40.1961 15.4154C40.9868 15.1578 41.614 14.7519 42.0776 14.1973C42.4946 13.7126 42.7501 13.1364 42.8444 12.469L42.8754 12.1778ZM38.7161 12.2377C38.7264 12.0901 38.687 11.9922 38.6 11.9035C38.517 11.8191 38.3703 11.7401 38.0945 11.7207C37.7641 11.6975 37.4488 11.74 37.1446 11.8475C36.8473 11.9579 36.6173 12.1033 36.4416 12.2762C36.2844 12.4309 36.2182 12.5837 36.2068 12.7457C36.197 12.8875 36.2332 12.955 36.2916 13.0085C36.3932 13.0904 36.5692 13.1664 36.8719 13.1877L36.837 13.6911C36.4652 13.6649 36.1755 13.566 35.9684 13.3948C35.7743 13.2245 35.687 12.9962 35.7068 12.7105C35.7251 12.4492 35.825 12.2133 36.0072 12.0035L36.0908 11.9156C36.3258 11.6842 36.6217 11.5029 36.9785 11.3714C37.3482 11.2409 37.7321 11.1894 38.1295 11.2173L38.2601 11.2305C38.5562 11.2713 38.7888 11.3774 38.9573 11.5493C39.1497 11.7456 39.236 11.9871 39.2162 12.2729L39.1941 12.4344C39.1192 12.803 38.8762 13.11 38.4648 13.3552C37.9953 13.6223 37.4524 13.7344 36.837 13.6911L36.8719 13.1877C37.4038 13.2251 37.8456 13.1276 38.2176 12.9159C38.5783 12.6987 38.6998 12.4713 38.7161 12.2377ZM43.3754 12.213C43.3135 13.1045 43.0105 13.8839 42.457 14.5273L42.4561 14.5263C41.9656 15.1112 41.3238 15.5386 40.5506 15.8227L40.5886 15.8125C41.016 15.6693 41.4356 15.6044 41.8424 15.633C42.1592 15.6553 42.4642 15.7577 42.7536 15.9224C43.0739 16.1047 43.3277 16.3685 43.5174 16.6964C43.7337 17.0706 43.7988 17.519 43.7656 17.9972C43.7161 18.7086 43.4039 19.3233 42.8652 19.8268C42.3259 20.3306 41.5828 20.6737 40.6796 20.8871L40.6787 20.8861C39.7752 21.1033 38.6932 21.1612 37.4449 21.0733C35.8312 20.9597 34.5106 20.6474 33.517 20.1053C32.5274 19.5651 31.8056 18.8217 31.3876 17.8708L31.385 17.8657C30.993 16.9425 30.8485 15.8834 30.9304 14.7048C31.0335 13.2203 31.4264 11.9472 32.1331 10.9108L32.1342 10.9089C32.8458 9.87401 33.7735 9.10301 34.9096 8.60378L34.9117 8.60294C36.0563 8.10702 37.3163 7.9127 38.6811 8.00877C40.2667 8.12039 41.5147 8.52803 42.3141 9.3236C43.1022 10.0948 43.4545 11.0742 43.3754 12.213Z" fill="black"/>
<path d="M46.1036 9.16338C45.9491 6.93936 47.6148 5.01036 49.824 4.85484L61.8243 4.01006C64.0335 3.85454 65.9496 5.5314 66.1041 7.75542L66.9432 19.8363C67.0977 22.0603 65.432 23.9893 63.2228 24.1448L51.2226 24.9896C49.0134 25.1451 47.0972 23.4683 46.9427 21.2442L46.1036 9.16338Z" fill="#BAD29F"/>
<path d="M63.1879 23.6415L63.2228 24.1449L51.2226 24.9897L51.1876 24.4863L63.1879 23.6415ZM66.4432 19.8715L65.6041 7.79068C65.4689 5.84466 63.7923 4.37741 61.8592 4.51349L49.859 5.35827C47.9259 5.49435 46.4685 7.18222 46.6036 9.12824L47.4428 21.2091C47.5779 23.1551 49.2546 24.6224 51.1876 24.4863L51.2226 24.9897L51.0162 24.9993C48.8952 25.0401 47.0924 23.3988 46.9428 21.2443L46.1036 9.16344C45.9491 6.93942 47.6148 5.01042 49.824 4.8549L61.8243 4.01012C64.0335 3.8546 65.9496 5.53146 66.1041 7.75548L66.9432 19.8363C67.0977 22.0604 65.432 23.9894 63.2228 24.1449L63.1879 23.6415C65.1209 23.5054 66.5784 21.8176 66.4432 19.8715Z" fill="black"/>
<path d="M53.2148 21.8144C52.7569 21.8467 52.3589 21.7672 52.0208 21.5762C51.6962 21.3842 51.458 21.0727 51.3063 20.6417C51.1663 20.186 51.0304 19.5927 50.8984 18.8619C50.7791 18.1183 50.6902 17.3248 50.6316 16.4814C50.5994 16.0181 50.5694 15.489 50.5416 14.8941C50.5273 14.2983 50.5193 13.696 50.5176 13.0874C50.5294 12.4777 50.5441 11.9097 50.5617 11.3832C50.5784 10.8449 50.6022 10.4075 50.6329 10.0711C50.7198 9.37266 50.9314 8.81463 51.2678 8.39702C51.6169 7.96659 52.1416 7.72673 52.8419 7.67742C53.5962 7.62433 54.1632 7.79928 54.5431 8.20227C54.9221 8.59338 55.1327 9.09184 55.1748 9.69767C55.2111 10.2203 55.2069 10.8414 55.1621 11.5607C55.1308 12.2792 55.0532 13.0128 54.9292 13.7616L54.6794 13.6718C54.7921 13.1505 54.9892 12.6771 55.271 12.2514C55.5519 11.8138 55.9265 11.4592 56.3948 11.1875C56.8624 10.9039 57.4328 10.7384 58.1063 10.691C59.3858 10.6009 60.4248 10.9456 61.2233 11.7249C62.0344 12.4915 62.5007 13.7479 62.622 15.4941C62.7069 16.7176 62.5691 17.7539 62.2086 18.6029C61.848 19.4519 61.3185 20.1099 60.6201 20.5769C59.9208 21.032 59.1065 21.2922 58.1772 21.3577C57.3153 21.4183 56.5794 21.2493 55.9698 20.8506C55.3601 20.4518 54.9388 19.8428 54.706 19.0236L55.1439 19.1898C55.0417 20.0564 54.8295 20.704 54.5074 21.1326C54.1979 21.5483 53.767 21.7756 53.2148 21.8144ZM56.7976 18.4467C57.2285 18.4163 57.5857 18.2002 57.8691 17.7982C58.1659 17.3954 58.2863 16.79 58.2302 15.9823C58.1856 15.3408 58.0214 14.8272 57.7374 14.4413C57.4669 14.0545 57.0354 13.8819 56.4428 13.9236C55.9579 13.9578 55.5797 14.1634 55.3082 14.5407C55.0366 14.9179 54.926 15.4688 54.9763 16.1934C55.0242 16.8824 55.212 17.4422 55.5396 17.8727C55.8799 18.2904 56.2992 18.4817 56.7976 18.4467Z" fill="white"/>
<path d="M62.622 15.4942C62.5007 13.7481 62.0348 12.4913 61.2237 11.7248C60.4751 10.9941 59.5147 10.6453 58.3434 10.6788L58.1067 10.6905C57.4333 10.7379 56.8619 10.9038 56.3944 11.1874C55.9262 11.4591 55.5519 11.814 55.2711 12.2515C55.2059 12.35 55.1451 12.4511 55.089 12.5548C55.1226 12.2202 55.1479 11.8889 55.1622 11.5607C55.1958 11.0212 55.2068 10.537 55.1948 10.1081L55.1751 9.69749C55.1383 9.1676 54.9721 8.71995 54.6775 8.35433L54.5433 8.20175C54.1634 7.79888 53.5956 7.62432 52.8415 7.67741C52.1415 7.72677 51.6172 7.96663 51.2683 8.39674C50.9319 8.81425 50.7197 9.37235 50.6328 10.0706C50.602 10.407 50.5788 10.8453 50.5621 11.3836L50.5175 13.087C50.5192 13.6957 50.5276 14.2984 50.5419 14.8942L50.5848 15.7369C50.5998 16.0015 50.6155 16.2498 50.6316 16.4815L50.6807 17.1044C50.7361 17.7181 50.8085 18.3038 50.898 18.8615C51.0299 19.5923 51.1663 20.186 51.3062 20.6417C51.458 21.0727 51.6962 21.3844 52.0208 21.5764C52.3166 21.7435 52.6583 21.8251 53.0457 21.8213L53.215 21.8144C53.767 21.7755 54.1977 21.5482 54.5072 21.1326C54.7433 20.8185 54.9194 20.3862 55.0374 19.8366C55.2725 20.2591 55.5825 20.5978 55.9695 20.8508C56.503 21.1998 57.1335 21.3727 57.8603 21.3698L58.1774 21.3573C59.1065 21.2919 59.9206 21.0318 60.6197 20.5768C61.2309 20.1682 61.713 19.6133 62.0655 18.9121L62.2088 18.6027C62.5243 17.8598 62.669 16.9736 62.6434 15.9441L62.622 15.4942ZM54.9767 16.1934C54.9326 15.5592 55.0112 15.0579 55.2137 14.6898L55.3084 14.5409C55.58 14.1637 55.9583 13.9577 56.4432 13.9236L56.6577 13.9184C57.1408 13.9288 57.5006 14.1028 57.7372 14.4411C58.0211 14.8269 58.1854 15.3407 58.2299 15.9822C58.286 16.7897 58.1659 17.3948 57.8693 17.7977L57.7594 17.9398C57.4953 18.251 57.1748 18.4196 56.7975 18.4462L56.7626 17.9428C57.0227 17.9245 57.2509 17.8035 57.4604 17.5064L57.4666 17.4971C57.6597 17.2348 57.7825 16.7739 57.7299 16.0174C57.6898 15.4405 57.5458 15.0286 57.3351 14.742L57.3276 14.7317C57.1855 14.5285 56.9486 14.3939 56.4781 14.427C56.1327 14.4513 55.8932 14.587 55.7136 14.8364C55.5405 15.0769 55.4302 15.4891 55.4767 16.1582C55.5193 16.772 55.6821 17.2279 55.9333 17.5606C56.1778 17.857 56.4427 17.9653 56.7626 17.9428L56.7975 18.4462L56.6142 18.4492C56.1956 18.4303 55.8375 18.2381 55.5398 17.8728C55.2531 17.496 55.0735 17.0202 55.0011 16.4456L54.9767 16.1934ZM55.6751 9.66229C55.7039 10.0763 55.7068 10.5429 55.6878 11.0603C55.8285 10.9503 55.9772 10.8476 56.1357 10.7551C56.6854 10.4217 57.3376 10.2388 58.0718 10.1871C59.4691 10.0889 60.6557 10.4676 61.5724 11.3623C62.5121 12.254 62.9969 13.658 63.122 15.459C63.2107 16.7372 63.0695 17.8587 62.6692 18.8015C62.2739 19.7319 61.6845 20.4705 60.8972 20.9969L60.8925 21.0002C60.1141 21.5069 59.2158 21.7901 58.2123 21.8607C57.263 21.9276 56.4138 21.7432 55.6966 21.2741C55.5243 21.1614 55.3661 21.0341 55.2208 20.8947C55.1299 21.0938 55.028 21.2766 54.9072 21.4374L54.9061 21.4365C54.5025 21.9775 53.9345 22.2695 53.2499 22.3177C52.7128 22.3555 52.2136 22.2639 51.7756 22.0165L51.7664 22.0112C51.3204 21.7472 51.0168 21.3289 50.8341 20.8103L50.8305 20.8006L50.8279 20.7909C50.6798 20.3085 50.5396 19.6933 50.4058 18.9524L50.4031 18.9428L50.404 18.9417C50.2821 18.1816 50.1911 17.3732 50.1316 16.5167C50.0991 16.0487 50.069 15.5154 50.0411 14.9176L50.0403 14.9058C50.0259 14.3065 50.0178 13.7008 50.0161 13.0887L50.0164 13.0778C50.0282 12.4663 50.0427 11.8957 50.0604 11.3666C50.0773 10.8236 50.102 10.3752 50.134 10.0247L50.1345 10.0168L50.1359 10.0088C50.2308 9.24524 50.4673 8.58958 50.8782 8.0794L50.9681 7.97526C51.4227 7.47789 52.058 7.22681 52.8065 7.17404C53.6489 7.11474 54.3844 7.30483 54.9015 7.84952C55.3728 8.33582 55.6257 8.95148 55.6751 9.66229Z" fill="black"/>
<path d="M65.9896 7.75536C66.1441 5.53134 68.0602 3.85448 70.2694 4.01L82.2697 4.85478C84.4789 5.01029 86.1445 6.9393 85.9901 9.16332L85.1509 21.2442C84.9964 23.4682 83.0803 25.1451 80.8711 24.9895L68.8708 24.1448C66.6616 23.9892 64.996 22.0602 65.1505 19.8362L65.9896 7.75536Z" fill="#7C77B9"/>
<path d="M80.9061 24.4862L80.8711 24.9895L68.8708 24.1448L68.9058 23.6414L80.9061 24.4862ZM84.6509 21.209L85.49 9.12812C85.6252 7.1821 84.1678 5.49422 82.2347 5.35815L70.2344 4.51337C68.3014 4.37729 66.6248 5.84454 66.4896 7.79056L65.6505 19.8714C65.5153 21.8174 66.9728 23.5053 68.9058 23.6414L68.8708 24.1448L68.6651 24.1253C66.5592 23.8686 65.0008 21.9907 65.1505 19.8362L65.9896 7.75536C66.1441 5.53134 68.0602 3.85448 70.2694 4.01L82.2697 4.85478C84.4789 5.01029 86.1445 6.9393 85.9901 9.16332L85.1509 21.2442C84.9964 23.4682 83.0803 25.1451 80.8711 24.9895L80.9061 24.4862C82.8391 24.6223 84.5157 23.155 84.6509 21.209Z" fill="black"/>
<path d="M71.2465 21.3419C70.0776 20.4169 69.298 16.3495 69.298 16.3495C69.0123 15.192 67.3299 14.1405 67.5689 13.1302C67.9541 11.5019 71.7105 14.1231 71.7105 14.1231C71.7105 14.1231 71.0012 6.5532 73.8081 6.83523C75.464 7.00161 74.9466 11.2005 74.767 12.3859C74.9801 11.1334 75.8709 6.50671 77.3822 6.6175C79.816 6.79591 77.3722 13.6537 77.3722 13.6537C77.3722 13.6537 79.4799 8.38079 81.0474 8.9471C82.3749 9.42672 79.7098 15.5037 79.7098 15.5037C79.7098 15.5037 81.8591 10.8742 83.0676 11.6879C84.6789 12.7729 81.1624 17.034 81.1624 17.034C80.5691 19.1663 78.8195 23.3282 76.5683 22.9174C74.3172 22.5066 72.4153 22.2669 71.2465 21.3419Z" fill="#FEECDE"/>
<path d="M77.4007 6.36578C77.7721 6.39309 78.0643 6.55208 78.2747 6.81129C78.4786 7.06237 78.5944 7.39234 78.6549 7.74957C78.7756 8.46208 78.6912 9.37189 78.5366 10.247C78.4919 10.4999 78.4389 10.7517 78.3843 10.9982C78.3915 10.9859 78.3988 10.9734 78.4059 10.961C78.7709 10.3313 79.194 9.70222 79.6358 9.26397C80.0614 8.84177 80.5905 8.5135 81.1325 8.70932C81.4057 8.80814 81.5476 9.04683 81.6133 9.30388C81.6782 9.55793 81.6806 9.86878 81.6479 10.199C81.582 10.8632 81.3667 11.6881 81.1152 12.4819C81.0934 12.5508 81.0695 12.6191 81.0471 12.6876C81.3098 12.3255 81.589 11.9914 81.8702 11.7494C82.0695 11.578 82.285 11.4376 82.5092 11.375C82.743 11.3097 82.9862 11.3299 83.2066 11.4782C83.734 11.8333 83.806 12.4366 83.6956 13.0275C83.5848 13.6211 83.2804 14.2849 82.9373 14.8927C82.5919 15.5049 82.1965 16.0804 81.8888 16.5013C81.7347 16.7121 81.6018 16.885 81.5074 17.0054C81.4601 17.0656 81.4221 17.1131 81.3961 17.1453C81.3936 17.1485 81.3911 17.1514 81.3888 17.1542C81.0836 18.2339 80.4961 19.8023 79.6987 21.065C79.2939 21.7061 78.8257 22.2829 78.3015 22.6743C77.7741 23.0679 77.1736 23.2847 76.5235 23.1661C75.4074 22.9625 74.3545 22.7965 73.441 22.5669C72.5263 22.337 71.7173 22.0357 71.0913 21.5403C70.7505 21.2705 70.4625 20.7966 70.2221 20.2788C69.9776 19.7522 69.7658 19.1443 69.5936 18.5723C69.421 17.9992 69.2858 17.4555 69.1936 17.0562C69.1476 16.8568 69.1122 16.6928 69.0883 16.5784C69.0763 16.5211 69.0671 16.4757 69.0609 16.445L69.0546 16.4102C68.9942 16.1655 68.8558 15.9129 68.6687 15.6458C68.4807 15.3774 68.2607 15.1179 68.0414 14.8433C67.828 14.5762 67.6162 14.2945 67.4744 14.0093C67.3316 13.7219 67.2464 13.4037 67.3249 13.0716C67.3867 12.8105 67.5246 12.6121 67.7292 12.4888C67.9256 12.3705 68.158 12.3364 68.3886 12.3458C68.8455 12.3647 69.3878 12.5581 69.8873 12.7866C70.3937 13.0184 70.8853 13.301 71.248 13.5241C71.3116 13.5633 71.3709 13.6016 71.4263 13.6367C71.4152 13.4492 71.4019 13.2169 71.3934 12.9526C71.3706 12.2415 71.3696 11.2928 71.4577 10.3498C71.5453 9.41255 71.7225 8.45551 72.0714 7.7434C72.2467 7.38561 72.4724 7.07445 72.766 6.86241C73.0651 6.64642 73.4224 6.54281 73.8335 6.58412C74.376 6.63883 74.7138 7.02906 74.9135 7.50817C75.112 7.98449 75.198 8.59719 75.2261 9.21678C75.2273 9.24262 75.2264 9.26879 75.2274 9.29474C75.2671 9.1656 75.3072 9.03671 75.3501 8.90974C75.5717 8.25244 75.8404 7.61913 76.1592 7.1529C76.4696 6.69904 76.8818 6.32774 77.4007 6.36578ZM77.8863 7.13066C77.7646 6.98083 77.6008 6.88607 77.364 6.86871C77.1273 6.85137 76.8603 7.01755 76.572 7.43916C76.2922 7.8484 76.0413 8.42991 75.8248 9.07179C75.3942 10.3487 75.1216 11.7987 75.015 12.4241L74.9782 12.6558C74.9737 12.6827 74.97 12.7037 74.9675 12.7179C74.9663 12.7247 74.9656 12.7301 74.965 12.7337C74.9646 12.7356 74.9635 12.7374 74.9633 12.7384L74.9639 12.7396C74.9395 12.8752 74.811 12.9659 74.676 12.9435C74.541 12.921 74.4489 12.7935 74.4691 12.6573C74.4692 12.6563 74.4696 12.6539 74.4698 12.6523C74.4704 12.6486 74.4716 12.6426 74.4727 12.6355C74.4748 12.6214 74.4779 12.6007 74.4821 12.574C74.4906 12.5204 74.5027 12.4422 74.5195 12.3436C74.5197 12.3423 74.5197 12.3407 74.5199 12.3395C74.6095 11.7465 74.7795 10.4276 74.7258 9.24025C74.6986 8.64122 74.6153 8.0981 74.4508 7.70334C74.2875 7.31172 74.0684 7.11515 73.7834 7.08643C73.4928 7.05723 73.2571 7.12847 73.0577 7.27247C72.853 7.42042 72.6741 7.65458 72.5212 7.9666C72.2136 8.59451 72.0427 9.47716 71.9567 10.3971C71.8713 11.3112 71.8717 12.2372 71.8942 12.9366C71.9054 13.2858 71.9214 13.5778 71.9352 13.7817C71.942 13.8835 71.9487 13.9633 71.9531 14.0175C71.9553 14.0445 71.957 14.0652 71.9582 14.079C71.9588 14.0857 71.9597 14.091 71.96 14.0944C71.9602 14.096 71.9595 14.0976 71.9596 14.0984L71.9602 14.0997C71.9693 14.1973 71.9209 14.2914 71.8368 14.3409C71.7528 14.3903 71.648 14.3864 71.5679 14.3307L71.5655 14.3288C71.5639 14.3277 71.5611 14.3262 71.5579 14.324C71.5511 14.3193 71.5413 14.3118 71.528 14.3027C71.5012 14.2845 71.461 14.2581 71.4102 14.2246C71.3087 14.1574 71.1627 14.0626 70.9865 13.9543C70.6329 13.7368 70.1606 13.4657 69.68 13.2457C69.1924 13.0227 68.7234 12.8651 68.3679 12.8504C68.1927 12.8432 68.0692 12.8724 67.9866 12.9221C67.912 12.9671 67.847 13.0431 67.8125 13.189C67.7717 13.3619 67.8079 13.5537 67.922 13.7835C68.0374 14.0157 68.2189 14.2601 68.4319 14.5268C68.6389 14.7859 68.8779 15.0692 69.0781 15.3549C69.2792 15.6419 69.4586 15.9546 69.541 16.2885L69.5448 16.3014L69.5447 16.3045C69.545 16.3063 69.5454 16.3089 69.5461 16.3124C69.5475 16.3198 69.5498 16.3315 69.5527 16.3462C69.5586 16.3755 69.5674 16.4186 69.579 16.474C69.6022 16.5855 69.6371 16.7467 69.6823 16.9427C69.7728 17.3347 69.9051 17.8661 70.0734 18.4252C70.2422 18.9856 70.4455 19.5685 70.6759 20.0647C70.9102 20.5693 71.1578 20.9506 71.4012 21.1434C71.9441 21.573 72.6712 21.8538 73.5623 22.0778C74.4547 22.302 75.478 22.4626 76.613 22.6697C77.0882 22.7564 77.5507 22.6065 78.0028 22.2691C78.4583 21.929 78.8873 21.4083 79.2754 20.7937C80.0508 19.5657 80.6285 18.0178 80.9211 16.9664C80.9306 16.9323 80.9475 16.9004 80.97 16.8731L80.9719 16.8707C80.9734 16.8688 80.9761 16.8656 80.9792 16.8618C80.9855 16.8541 80.995 16.8421 81.0073 16.8269C81.032 16.7962 81.0678 16.7506 81.1134 16.6925C81.205 16.5757 81.3346 16.4071 81.4849 16.2015C81.7861 15.7896 82.1689 15.2317 82.5011 14.643C82.8357 14.05 83.1082 13.445 83.2035 12.9346C83.2993 12.4214 83.2064 12.0854 82.9281 11.898C82.8466 11.8431 82.7585 11.8293 82.6437 11.8612C82.5191 11.896 82.3676 11.9847 82.1954 12.1328C81.8518 12.4285 81.4856 12.9063 81.1449 13.4287C80.8068 13.9473 80.5042 14.4936 80.2859 14.911C80.1771 15.1191 80.0895 15.295 80.0292 15.4182C79.9992 15.4796 79.9763 15.5281 79.9607 15.561C79.9557 15.5716 79.9505 15.5802 79.9471 15.5875L79.9412 15.6011L79.9396 15.6057L79.939 15.6045L79.9366 15.6109C79.8784 15.7359 79.7309 15.7905 79.606 15.7334C79.4811 15.6762 79.4254 15.5286 79.4806 15.4023L79.4822 15.3976C79.4835 15.3948 79.4854 15.3905 79.4878 15.385C79.4927 15.3737 79.5002 15.3572 79.5097 15.3353C79.5286 15.2913 79.5557 15.2262 79.5905 15.1435C79.6602 14.9778 79.7591 14.7397 79.873 14.453C80.1008 13.8789 80.3898 13.1099 80.6374 12.3282C80.8862 11.5429 81.0885 10.7587 81.1489 10.1487C81.1793 9.84189 81.1721 9.59939 81.1286 9.42934C81.086 9.26266 81.0217 9.20551 80.9632 9.18428C80.7215 9.09694 80.3986 9.21648 79.9881 9.62367C79.5939 10.0148 79.1963 10.598 78.8384 11.2156C78.4825 11.8297 78.1741 12.4631 77.954 12.9442C77.8441 13.1845 77.7561 13.3863 77.6962 13.5275C77.6663 13.5981 77.643 13.6535 77.6275 13.6912C77.6217 13.7053 77.6167 13.7168 77.6131 13.7258L77.6055 13.7471L77.6042 13.7477C77.5533 13.8752 77.4109 13.9381 77.2833 13.8894C77.1557 13.8405 77.0906 13.6977 77.1367 13.5683L77.1433 13.5498C77.1477 13.5372 77.1538 13.5182 77.1622 13.4938C77.1792 13.4445 77.2039 13.3718 77.2345 13.2791C77.2959 13.0934 77.3815 12.8276 77.4761 12.5078C77.6657 11.8671 77.8918 11.014 78.0428 10.1587C78.195 9.29722 78.2661 8.45839 78.1606 7.83491C78.108 7.5242 78.0147 7.28873 77.8863 7.13066Z" fill="black"/>
<path d="M74.8145 13.4542C75.3812 13.521 76.2166 13.7056 77.3183 14.1742C78.4421 14.6523 79.131 15.2944 79.5403 15.8248C79.7444 16.0893 79.8777 16.3251 79.9611 16.4972C80.0029 16.5833 80.0327 16.6537 80.0518 16.7038C80.0613 16.7286 80.0685 16.7484 80.0734 16.7629C80.0758 16.7699 80.0772 16.7761 80.0786 16.7804C80.0793 16.7827 80.0802 16.785 80.0806 16.7864L80.0809 16.7886C80.0809 16.7887 80.0817 16.7895 79.9359 16.8336L80.0815 16.7899C80.1212 16.9233 80.0459 17.0639 79.9134 17.104C79.7974 17.1388 79.6761 17.085 79.621 16.9817L79.6013 16.9348C79.6009 16.9334 79.6004 16.9305 79.5991 16.9266C79.5962 16.9182 79.5907 16.904 79.5836 16.8854C79.5693 16.848 79.5458 16.791 79.5108 16.7188C79.4408 16.5744 79.3248 16.3683 79.1441 16.1341C78.7836 15.667 78.1616 15.0816 77.1223 14.6395C76.0608 14.188 75.272 14.0152 74.7559 13.9544C74.4978 13.9241 74.3072 13.9217 74.1846 13.9261C74.1233 13.9283 74.0788 13.9324 74.0512 13.9355L74.0186 13.9395C73.8827 13.965 73.7518 13.8753 73.7262 13.7386C73.7006 13.6016 73.791 13.4693 73.927 13.4436L73.9292 13.4433C73.9304 13.4431 73.9321 13.4422 73.9338 13.4419C73.9375 13.4412 73.9424 13.4406 73.9481 13.4397C73.9597 13.438 73.9759 13.4362 73.9959 13.4339C74.036 13.4294 74.0928 13.4249 74.1665 13.4222C74.3147 13.4169 74.5313 13.4209 74.8145 13.4542Z" fill="black"/>
<path d="M72.3892 15.3611C73.3917 16.6731 73.7302 18.2462 73.3917 19.1961C73.3917 19.1961 77.2825 20.8414 77.657 18.2962C78.0315 15.7511 72.3892 15.3611 72.3892 15.3611Z" fill="#FECBB7"/>
<path d="M72.1136 15.1101C72.2136 15.0139 72.3721 15.0171 72.4677 15.1176C73.2081 15.8975 74.3102 17.3689 73.6155 19.336C73.5692 19.4672 73.4259 19.536 73.2956 19.4896C73.1652 19.4429 73.097 19.2979 73.1434 19.1666C73.7364 17.4866 72.8184 16.2169 72.1062 15.4665C72.0107 15.3659 72.0139 15.2064 72.1136 15.1101Z" fill="black"/>
</svg>
