<svg width="40" height="40" viewBox="0 0 40 40" fill="none" xmlns="http://www.w3.org/2000/svg">
<path d="M40 20C40 31.0457 31.0457 40 20 40C8.9543 40 0 31.0457 0 20C0 8.9543 8.9543 0 20 0C31.0457 0 40 8.9543 40 20Z" fill="#7C77B9"/>
<path d="M39.5 20C39.5 9.23045 30.7696 0.5 20 0.5C9.23045 0.5 0.5 9.23045 0.5 20C0.5 30.7696 9.23045 39.5 20 39.5V40C8.9543 40 0 31.0457 0 20C0 8.9543 8.9543 0 20 0C31.0457 0 40 8.9543 40 20C40 31.0457 31.0457 40 20 40V39.5C30.7696 39.5 39.5 30.7696 39.5 20Z" fill="#FEECDE"/>
<path d="M12.9012 33.0761C10.5886 31.4016 8.78587 23.7077 8.78587 23.7077C8.15039 21.523 4.84268 19.6464 5.22517 17.7024C5.84158 14.5695 13.2475 19.2808 13.2475 19.2808C13.2475 19.2808 11.3157 4.90522 16.7233 5.22979C19.9134 5.42126 19.2371 13.4642 18.9817 15.7374C19.2963 13.3339 20.657 4.44703 23.5653 4.5435C28.2492 4.69887 24.0765 17.9563 24.0765 17.9563C24.0765 17.9563 27.7237 7.7454 30.7743 8.7059C33.3579 9.51938 28.7019 21.3052 28.7019 21.3052C28.7019 21.3052 32.4772 12.3177 34.8576 13.7771C38.0314 15.7228 31.6047 24.112 31.6047 24.112C30.6268 28.2215 27.5833 36.2875 23.2324 35.6754C18.8816 35.0632 15.2139 34.7506 12.9012 33.0761Z" fill="#FEECDE"/>
<path d="M23.5738 4.2939C24.2264 4.31559 24.7386 4.56878 25.1191 4.99835C25.4928 5.42031 25.7271 5.99806 25.8657 6.65333C26.1424 7.9617 26.0551 9.66848 25.8253 11.3419C25.6741 12.4435 25.4555 13.5413 25.2358 14.5195C25.4866 13.9798 25.7635 13.4134 26.0611 12.8535C26.7109 11.6311 27.4645 10.4212 28.2582 9.57473C29.0363 8.74485 29.9353 8.17982 30.8497 8.46773C31.2809 8.60365 31.5332 8.96469 31.6664 9.40867C31.7987 9.84986 31.8274 10.4113 31.7901 11.0324C31.7153 12.2786 31.3694 13.8491 30.9477 15.3774C30.7496 16.0955 30.5321 16.8071 30.3178 17.4765C30.4332 17.2729 30.5511 17.0681 30.6729 16.8655C31.2967 15.8281 32.0066 14.8165 32.7219 14.1545C33.0793 13.8237 33.4532 13.5654 33.8333 13.4436C34.223 13.3187 34.6194 13.3384 34.988 13.5644C35.9088 14.1289 36.0975 15.1503 35.9357 16.2491C35.7734 17.3507 35.2522 18.6113 34.6433 19.7891C34.0323 20.9711 33.3221 22.0891 32.7661 22.9105C32.4879 23.3215 32.2475 23.6593 32.0766 23.8944C31.9911 24.012 31.923 24.1044 31.8761 24.1671C31.8592 24.1897 31.845 24.2086 31.8338 24.2234C31.3367 26.2921 30.3302 29.33 28.8994 31.7901C28.1781 33.0304 27.341 34.1385 26.3953 34.8995C25.4465 35.6631 24.3728 36.0886 23.1973 35.9232C21.0314 35.6184 19.0115 35.3853 17.251 35.0191C15.4895 34.6527 13.9536 34.1464 12.7547 33.2784C12.1265 32.8235 11.5578 31.9841 11.0603 31.021C10.5585 30.0494 10.1115 28.9182 9.73964 27.8462C9.36746 26.7732 9.0686 25.7534 8.8625 25.0025C8.75943 24.6269 8.67978 24.3178 8.6256 24.1027C8.59857 23.9954 8.57759 23.9113 8.56366 23.8539C8.55669 23.8252 8.55127 23.8024 8.54772 23.7875C8.54683 23.7837 8.54636 23.7804 8.5457 23.7776L8.48415 23.5893C8.32272 23.1505 8.04664 22.7143 7.7087 22.2733C7.32166 21.7682 6.87113 21.2791 6.43546 20.7792C6.00611 20.2865 5.59227 19.7839 5.31184 19.2748C5.0303 18.7635 4.86908 18.2197 4.98035 17.6542C5.06872 17.2051 5.28539 16.8741 5.6101 16.6618C5.92699 16.4545 6.32084 16.3766 6.73882 16.3771C7.5704 16.3783 8.59142 16.6899 9.56167 17.0854C10.539 17.4838 11.4939 17.98 12.2025 18.3753C12.4942 18.538 12.7449 18.684 12.9392 18.7996C12.9353 18.7648 12.9306 18.7281 12.9265 18.6902C12.884 18.2953 12.8296 17.732 12.7811 17.0575C12.6841 15.7092 12.6109 13.9112 12.7082 12.1204C12.8052 10.3351 13.0721 8.53109 13.6704 7.18652C13.9702 6.5127 14.3599 5.93878 14.8673 5.54333C15.3802 5.14377 16.0018 4.93622 16.7379 4.98031C17.6643 5.03591 18.2837 5.6678 18.6847 6.52675C19.0845 7.38295 19.2935 8.51228 19.3932 9.68188C19.4435 10.2713 19.4661 10.8767 19.4699 11.4711C19.6388 10.6995 19.8331 9.90131 20.0607 9.13231C20.4345 7.86955 20.8949 6.66607 21.4547 5.77996C22.0065 4.90651 22.7057 4.26511 23.5738 4.2939ZM24.7445 5.32989C24.4568 5.00514 24.0748 4.81048 23.5569 4.7933C22.9709 4.77395 22.4084 5.20649 21.8774 6.04712C21.3542 6.87527 20.9095 8.0267 20.5402 9.27404C19.804 11.7614 19.3876 14.5641 19.2302 15.7651L19.1774 16.2062C19.1709 16.2571 19.1657 16.2964 19.1621 16.3232C19.1603 16.3366 19.1593 16.3478 19.1583 16.3547C19.1579 16.358 19.1571 16.3608 19.1569 16.3625L19.156 16.3653C19.1369 16.5003 19.0133 16.5956 18.8779 16.5787C18.7426 16.5618 18.6459 16.4391 18.6605 16.3035L18.6605 16.3004C18.6606 16.2987 18.6615 16.296 18.6619 16.2927C18.6626 16.2858 18.6639 16.2754 18.6654 16.262C18.6684 16.2354 18.6725 16.1962 18.6785 16.1454C18.6907 16.0433 18.7094 15.8939 18.7341 15.7052C18.7347 15.7011 18.7355 15.6967 18.7361 15.6925C18.8637 14.5512 19.0903 12.0059 18.8957 9.72392C18.7977 8.57481 18.5938 7.5149 18.2312 6.73823C17.8699 5.96461 17.377 5.52015 16.7086 5.47992C16.093 5.44296 15.5916 5.61371 15.1751 5.93812C14.7535 6.26662 14.4069 6.76196 14.1275 7.38978C13.5671 8.64935 13.3035 10.3795 13.2075 12.1475C13.1118 13.9097 13.1834 15.6851 13.2796 17.0219C13.3276 17.6896 13.3815 18.2468 13.4235 18.6367C13.4445 18.8317 13.4629 18.9851 13.4756 19.0892C13.4819 19.1412 13.4871 19.1809 13.4906 19.2076C13.4923 19.2208 13.4936 19.2308 13.4945 19.2375C13.4949 19.2406 13.495 19.2433 13.4952 19.2449L13.4955 19.247C13.5083 19.3433 13.4635 19.4394 13.3817 19.4917C13.2999 19.5438 13.1952 19.5442 13.1133 19.4922L13.1126 19.491C13.1118 19.4905 13.11 19.4897 13.1083 19.4886C13.1049 19.4865 13.0997 19.4829 13.093 19.4787C13.0794 19.4701 13.0587 19.4576 13.0321 19.4411C12.9787 19.4079 12.8998 19.3598 12.7993 19.2992C12.5976 19.1777 12.3079 19.0063 11.9587 18.8115C11.2595 18.4213 10.3241 17.9359 9.37303 17.5482C8.41482 17.1576 7.46831 16.8786 6.73798 16.8775C6.37546 16.877 6.08993 16.9451 5.88398 17.0797C5.68574 17.2093 5.53571 17.4169 5.46998 17.751C5.39017 18.1572 5.49876 18.5773 5.74944 19.0327C6.00147 19.4903 6.38325 19.958 6.8123 20.4504C7.2351 20.9356 7.70648 21.4477 8.10634 21.9695C8.45699 22.4272 8.76666 22.91 8.95353 23.4186L9.02579 23.6379L9.03001 23.6505C9.03021 23.6514 9.02999 23.654 9.03041 23.6558C9.03125 23.6593 9.03269 23.6652 9.0344 23.6724C9.03779 23.6867 9.04266 23.7078 9.04936 23.7355C9.06296 23.7916 9.0836 23.8748 9.11032 23.9809C9.16373 24.193 9.24262 24.4981 9.34456 24.8696C9.5487 25.6134 9.84473 26.6221 10.2122 27.6817C10.5801 28.7423 11.0177 29.8492 11.5043 30.7911C11.9952 31.7415 12.5197 32.4917 13.0478 32.8741C14.1613 33.6802 15.6154 34.1676 17.353 34.5291C19.0922 34.8909 21.0822 35.1207 23.2671 35.4281C24.2669 35.5688 25.2057 35.2151 26.0817 34.5101C26.9609 33.8026 27.7621 32.7519 28.4677 31.5386C29.8784 29.1129 30.8764 26.0942 31.3618 24.0544C31.37 24.0202 31.3846 23.9876 31.4059 23.9597L31.4072 23.9591L31.4235 23.9366C31.4352 23.9211 31.4531 23.8984 31.4757 23.8681C31.5214 23.807 31.5886 23.716 31.6726 23.6004C31.8407 23.3691 32.078 23.0364 32.3525 22.6308C32.9023 21.8185 33.6008 20.7177 34.1997 19.5594C34.8007 18.3967 35.2905 17.1948 35.4406 16.1762C35.591 15.155 35.3931 14.3984 34.7271 13.9901C34.5006 13.8512 34.258 13.8322 33.9856 13.9195C33.7037 14.0099 33.3923 14.2147 33.0611 14.5212C32.3991 15.1339 31.7191 16.0964 31.1016 17.1233C30.4866 18.146 29.9438 19.2156 29.5546 20.0313C29.3602 20.4388 29.204 20.7825 29.0969 21.0236C29.0435 21.144 29.0019 21.2387 28.9741 21.3034C28.9601 21.3357 28.9496 21.3608 28.9426 21.3774C28.9391 21.3857 28.9363 21.3923 28.9346 21.3964L28.9328 21.402C28.8798 21.5282 28.7345 21.5887 28.6077 21.5372C28.4808 21.4855 28.4188 21.3405 28.4691 21.213L28.4706 21.2115C28.4712 21.2101 28.4716 21.2076 28.4727 21.205C28.4748 21.1994 28.4782 21.1912 28.4825 21.1804C28.4911 21.1584 28.5038 21.1256 28.5203 21.0828C28.5536 20.9968 28.6017 20.8701 28.6626 20.7088C28.7844 20.3863 28.956 19.9245 29.1534 19.3675C29.5484 18.253 30.0472 16.7604 30.4655 15.2441C30.8848 13.7244 31.2189 12.1956 31.2905 11.0032C31.3264 10.4053 31.2955 9.91188 31.1879 9.55293C31.0813 9.19721 30.9138 9.01226 30.6996 8.94466C30.0888 8.75233 29.387 9.10264 28.6234 9.91698C27.8753 10.7149 27.1454 11.8784 26.5021 13.0885C25.8607 14.2951 25.3133 15.5335 24.9255 16.4714C24.7317 16.9401 24.5773 17.3331 24.4723 17.6086C24.4199 17.7461 24.3804 17.8547 24.3533 17.9284C24.3397 17.9652 24.3285 17.9937 24.3216 18.0126C24.3183 18.0219 24.3156 18.0291 24.314 18.0337L24.3119 18.0403C24.2661 18.1685 24.1258 18.2363 23.9967 18.1929C23.8678 18.1494 23.797 18.0106 23.8379 17.8808L23.8493 17.8445C23.8569 17.8199 23.8682 17.7832 23.8827 17.7352C23.9118 17.639 23.9541 17.4968 24.0063 17.3165C24.1106 16.9558 24.2544 16.4401 24.4126 15.8206C24.7294 14.5803 25.1027 12.9279 25.3297 11.2739C25.5576 9.61385 25.6349 7.97728 25.3766 6.75638C25.2477 6.147 25.0392 5.66266 24.7445 5.32989Z" fill="black"/>
<path d="M19.1351 17.9994C20.2042 18.0818 21.7988 18.367 23.9298 19.1696C26.0831 19.9807 27.4222 21.1274 28.224 22.0794C28.6242 22.5546 28.89 22.9801 29.0564 23.2894C29.1396 23.4441 29.198 23.5699 29.2361 23.6583C29.2551 23.7023 29.2689 23.7371 29.2783 23.7616C29.2831 23.7739 29.2871 23.7838 29.2896 23.7908C29.2908 23.794 29.2915 23.7967 29.2922 23.7988C29.2926 23.7998 29.293 23.8014 29.2932 23.8022L29.2939 23.8034L29.3049 23.8529C29.3198 23.9682 29.2528 24.0817 29.1386 24.121C29.008 24.1659 28.8659 24.0963 28.821 23.9658L28.819 23.9621C28.8175 23.958 28.8158 23.9508 28.8122 23.9415C28.805 23.9229 28.7928 23.8944 28.7765 23.8566C28.7437 23.7806 28.6921 23.6677 28.6162 23.5266C28.4643 23.2442 28.217 22.8474 27.8412 22.4012C27.0906 21.5101 25.8215 20.4162 23.7539 19.6374C21.6638 18.8502 20.1153 18.5767 19.0969 18.4982C18.5875 18.459 18.2096 18.4688 17.9628 18.4874C17.8397 18.4966 17.7487 18.5084 17.6903 18.5173C17.6612 18.5217 17.6396 18.5254 17.6266 18.5279C17.6205 18.5291 17.6161 18.5295 17.6136 18.53C17.6124 18.5303 17.6114 18.5312 17.6112 18.5313C17.4767 18.5619 17.343 18.4774 17.3121 18.3429C17.2813 18.2084 17.3662 18.0738 17.5007 18.043L17.5038 18.0429C17.5056 18.0425 17.5079 18.0415 17.5106 18.0409C17.5161 18.0398 17.5238 18.0387 17.5334 18.0369C17.5526 18.0332 17.5801 18.0282 17.6156 18.0228C17.6864 18.012 17.7896 17.9985 17.9254 17.9883C18.1976 17.9678 18.6007 17.9582 19.1351 17.9994Z" fill="black"/>
<path d="M14.5 21.5C17 23.5 17.578 26.6636 17 28.5C17 28.5 24.5645 30.5684 24.973 26.7842C25.3815 23 18 22 14.5 21.5Z" fill="#FECBB7"/>
<path d="M14.2619 21.2921C14.3578 21.1929 14.5158 21.1899 14.6151 21.2855C16.0811 22.703 18.2185 25.335 17.0753 29.0042C17.0343 29.1359 16.8941 29.2096 16.7625 29.1689C16.6306 29.1278 16.557 28.9869 16.5981 28.8551C17.6512 25.4742 15.7052 23.0346 14.2685 21.6453C14.1693 21.5494 14.1662 21.3914 14.2619 21.2921Z" fill="black"/>
</svg>
